<svg xmlns="http://www.w3.org/2000/svg" xmlns:xlink="http://www.w3.org/1999/xlink" width="24" height="24" viewBox="0 0 24 24"><defs><style>.a{stroke:#000;}.b{clip-path:url(#a);}</style><clipPath id="a"><rect class="a" width="24" height="24" transform="translate(12 47)"/></clipPath></defs><g class="b" transform="translate(-12 -47)"><path class="a" d="M6.88,15.862-.367,8.683a1.094,1.094,0,0,1-.177-.228.656.656,0,0,1-.128-.427A.656.656,0,0,1-.544,7.6a1.094,1.094,0,0,1,.177-.228L6.88.2A.84.84,0,0,1,8.036.071a.816.816,0,0,1-.122,1.143L1.034,8.028l6.879,6.814a.816.816,0,0,1,.122,1.143.65.65,0,0,1-.464.179,1,1,0,0,1-.691-.3Z" transform="translate(19 51)"/></g></svg>